<?xml version="1.0" encoding="utf-8" standalone="no"?>
<!DOCTYPE svg PUBLIC "-//W3C//DTD SVG 1.1//EN"
  "http://www.w3.org/Graphics/SVG/1.1/DTD/svg11.dtd">
<svg xmlns:xlink="http://www.w3.org/1999/xlink" width="653.76pt" height="235.184875pt" viewBox="0 0 653.76 235.184875" xmlns="http://www.w3.org/2000/svg" version="1.1">
 <metadata>
  <rdf:RDF xmlns:dc="http://purl.org/dc/elements/1.1/" xmlns:cc="http://creativecommons.org/ns#" xmlns:rdf="http://www.w3.org/1999/02/22-rdf-syntax-ns#">
   <cc:Work>
    <dc:type rdf:resource="http://purl.org/dc/dcmitype/StillImage"/>
    <dc:date>2026-08-31T06:39:36.678055</dc:date>
    <dc:format>image/svg+xml</dc:format>
    <dc:creator>
     <cc:Agent>
      <dc:title>Matplotlib v3.10.0, https://matplotlib.org/</dc:title>
     </cc:Agent>
    </dc:creator>
   </cc:Work>
  </rdf:RDF>
 </metadata>
 <defs>
  <style type="text/css">*{stroke-linejoin: round; stroke-linecap: butt}</style>
 </defs>
 <g id="figure_1">
  <g id="patch_1">
   <path d="M 0 235.184875 
L 653.76 235.184875 
L 653.76 0 
L 0 0 
z
" style="fill: #ffffff"/>
  </g>
  <g id="axes_1">
   <g id="line2d_1">
    <path d="M 36.72 127.74691 
L 84.699954 47.283738 
" clip-path="url(#p41c1130894)" style="fill: none; stroke: #2a78d6; stroke-opacity: 0.28; stroke-linecap: round"/>
   </g>
   <g id="line2d_2">
    <path d="M 36.72 127.74691 
L 184.32 126.149238 
" clip-path="url(#p41c1130894)" style="fill: none; stroke: #2a78d6; stroke-opacity: 0.28; stroke-linecap: round"/>
   </g>
   <g id="line2d_3">
    <path d="M 36.72 127.74691 
L 87.651615 179.997103 
" clip-path="url(#p41c1130894)" style="fill: none; stroke: #2a78d6; stroke-opacity: 0.28; stroke-linecap: round"/>
   </g>
   <g id="line2d_4">
    <path d="M 84.699954 47.283738 
L 184.32 126.149238 
" clip-path="url(#p41c1130894)" style="fill: none; stroke: #2a78d6; stroke-opacity: 0.28; stroke-linecap: round"/>
   </g>
   <g id="line2d_5">
    <path d="M 84.699954 47.283738 
L 87.651615 179.997103 
" clip-path="url(#p41c1130894)" style="fill: none; stroke: #2a78d6; stroke-opacity: 0.28; stroke-linecap: round"/>
   </g>
   <g id="line2d_6">
    <path d="M 150.678753 181.609853 
L 111.106588 113.921648 
" clip-path="url(#p41c1130894)" style="fill: none; stroke: #2a78d6; stroke-opacity: 0.28; stroke-linecap: round"/>
   </g>
   <g id="line2d_7">
    <path d="M 111.106588 113.921648 
L 165.718755 66.027966 
" clip-path="url(#p41c1130894)" style="fill: none; stroke: #2a78d6; stroke-opacity: 0.28; stroke-linecap: round"/>
   </g>
   <g id="line2d_8">
    <path d="M 150.678753 181.609853 
L 165.718755 66.027966 
" clip-path="url(#p41c1130894)" style="fill: none; stroke: #2a78d6; stroke-opacity: 0.28; stroke-linecap: round"/>
   </g>
   <g id="line2d_9">
    <path d="M 150.678753 181.609853 
L 87.651615 179.997103 
" clip-path="url(#p41c1130894)" style="fill: none; stroke: #2a78d6; stroke-opacity: 0.28; stroke-linecap: round"/>
   </g>
   <g id="line2d_10">
    <path d="M 165.718755 66.027966 
L 87.651615 179.997103 
" clip-path="url(#p41c1130894)" style="fill: none; stroke: #2a78d6; stroke-opacity: 0.28; stroke-linecap: round"/>
   </g>
   <g id="line2d_11">
    <path d="M 184.32 126.149238 
L 150.678753 181.609853 
" clip-path="url(#p41c1130894)" style="fill: none; stroke: #2a78d6; stroke-opacity: 0.85; stroke-width: 2.2; stroke-linecap: round"/>
   </g>
   <g id="line2d_12">
    <path d="M 184.32 126.149238 
L 87.651615 179.997103 
" clip-path="url(#p41c1130894)" style="fill: none; stroke: #2a78d6; stroke-opacity: 0.85; stroke-width: 2.2; stroke-linecap: round"/>
   </g>
   <g id="line2d_13">
    <path d="M 184.32 126.149238 
L 111.106588 113.921648 
" clip-path="url(#p41c1130894)" style="fill: none; stroke: #2a78d6; stroke-opacity: 0.85; stroke-width: 2.2; stroke-linecap: round"/>
   </g>
   <g id="line2d_14">
    <path d="M 184.32 126.149238 
L 165.718755 66.027966 
" clip-path="url(#p41c1130894)" style="fill: none; stroke: #2a78d6; stroke-opacity: 0.85; stroke-width: 2.2; stroke-linecap: round"/>
   </g>
   <g id="PathCollection_1">
    <defs>
     <path id="m4e09c58b10" d="M 0 5.477226 
C 1.452577 5.477226 2.845856 4.900111 3.872983 3.872983 
C 4.900111 2.845856 5.477226 1.452577 5.477226 0 
C 5.477226 -1.452577 4.900111 -2.845856 3.872983 -3.872983 
C 2.845856 -4.900111 1.452577 -5.477226 0 -5.477226 
C -1.452577 -5.477226 -2.845856 -4.900111 -3.872983 -3.872983 
C -4.900111 -2.845856 -5.477226 -1.452577 -5.477226 0 
C -5.477226 1.452577 -4.900111 2.845856 -3.872983 3.872983 
C -2.845856 4.900111 -1.452577 5.477226 0 5.477226 
z
" style="stroke: #8a8880; stroke-width: 1.1"/>
    </defs>
    <g clip-path="url(#p41c1130894)">
     <use xlink:href="#m4e09c58b10" x="36.72" y="127.74691" style="fill: #ffffff; stroke: #8a8880; stroke-width: 1.1"/>
    </g>
   </g>
   <g id="PathCollection_2">
    <g clip-path="url(#p41c1130894)">
     <use xlink:href="#m4e09c58b10" x="84.699954" y="47.283738" style="fill: #ffffff; stroke: #8a8880; stroke-width: 1.1"/>
    </g>
   </g>
   <g id="PathCollection_3">
    <defs>
     <path id="m2e445f4e31" d="M 0 8.717798 
C 2.311987 8.717798 4.529592 7.799236 6.164414 6.164414 
C 7.799236 4.529592 8.717798 2.311987 8.717798 0 
C 8.717798 -2.311987 7.799236 -4.529592 6.164414 -6.164414 
C 4.529592 -7.799236 2.311987 -8.717798 0 -8.717798 
C -2.311987 -8.717798 -4.529592 -7.799236 -6.164414 -6.164414 
C -7.799236 -4.529592 -8.717798 -2.311987 -8.717798 0 
C -8.717798 2.311987 -7.799236 4.529592 -6.164414 6.164414 
C -4.529592 7.799236 -2.311987 8.717798 0 8.717798 
z
" style="stroke: #8a8880; stroke-width: 1.1"/>
    </defs>
    <g clip-path="url(#p41c1130894)">
     <use xlink:href="#m2e445f4e31" x="184.32" y="126.149238" style="fill: #ffffff; stroke: #8a8880; stroke-width: 1.1"/>
    </g>
   </g>
   <g id="PathCollection_4">
    <defs>
     <path id="mf0a958a772" d="M 0 6.442049 
C 1.708451 6.442049 3.347159 5.763274 4.555217 4.555217 
C 5.763274 3.347159 6.442049 1.708451 6.442049 0 
C 6.442049 -1.708451 5.763274 -3.347159 4.555217 -4.555217 
C 3.347159 -5.763274 1.708451 -6.442049 0 -6.442049 
C -1.708451 -6.442049 -3.347159 -5.763274 -4.555217 -4.555217 
C -5.763274 -3.347159 -6.442049 -1.708451 -6.442049 0 
C -6.442049 1.708451 -5.763274 3.347159 -4.555217 4.555217 
C -3.347159 5.763274 -1.708451 6.442049 0 6.442049 
z
" style="stroke: #8a8880; stroke-width: 1.1"/>
    </defs>
    <g clip-path="url(#p41c1130894)">
     <use xlink:href="#mf0a958a772" x="150.678753" y="181.609853" style="fill: #ffffff; stroke: #8a8880; stroke-width: 1.1"/>
    </g>
   </g>
   <g id="PathCollection_5">
    <g clip-path="url(#p41c1130894)">
     <use xlink:href="#mf0a958a772" x="111.106588" y="113.921648" style="fill: #ffffff; stroke: #8a8880; stroke-width: 1.1"/>
    </g>
   </g>
   <g id="PathCollection_6">
    <g clip-path="url(#p41c1130894)">
     <use xlink:href="#mf0a958a772" x="165.718755" y="66.027966" style="fill: #ffffff; stroke: #8a8880; stroke-width: 1.1"/>
    </g>
   </g>
   <g id="PathCollection_7">
    <g clip-path="url(#p41c1130894)">
     <use xlink:href="#mf0a958a772" x="87.651615" y="179.997103" style="fill: #ffffff; stroke: #8a8880; stroke-width: 1.1"/>
    </g>
   </g>
   <g id="text_1">
    <text style="font-size: 8.5px; font-family: 'DejaVu Sans', 'Helvetica', 'Arial', sans-serif; text-anchor: middle; fill: #84827c" x="110.52" y="226.217141" transform="rotate(-0 110.52 226.217141)">acuerdo medio 0,55</text>
   </g>
   <g id="text_2">
    <text style="font-size: 9.5px; font-family: 'DejaVu Sans', 'Helvetica', 'Arial', sans-serif; text-anchor: middle; fill: #0b0b0b" x="110.52" y="14.418516" transform="rotate(-0 110.52 14.418516)">Ronda 1</text>
   </g>
   <g id="text_3">
    <text style="font-size: 7.2px; font-family: 'DejaVu Sans', 'Helvetica', 'Arial', sans-serif; text-anchor: middle; fill: #52514e" x="36.72" y="129.73366" transform="rotate(-0 36.72 129.73366)">01</text>
   </g>
   <g id="text_4">
    <text style="font-size: 7.2px; font-family: 'DejaVu Sans', 'Helvetica', 'Arial', sans-serif; text-anchor: middle; fill: #52514e" x="84.699954" y="49.270488" transform="rotate(-0 84.699954 49.270488)">02</text>
   </g>
   <g id="text_5">
    <text style="font-size: 7.2px; font-family: 'DejaVu Sans', 'Helvetica', 'Arial', sans-serif; text-anchor: middle; fill: #52514e" x="184.32" y="128.135988" transform="rotate(-0 184.32 128.135988)">03</text>
   </g>
   <g id="text_6">
    <text style="font-size: 7.2px; font-family: 'DejaVu Sans', 'Helvetica', 'Arial', sans-serif; text-anchor: middle; fill: #52514e" x="150.678753" y="183.596603" transform="rotate(-0 150.678753 183.596603)">04</text>
   </g>
   <g id="text_7">
    <text style="font-size: 7.2px; font-family: 'DejaVu Sans', 'Helvetica', 'Arial', sans-serif; text-anchor: middle; fill: #52514e" x="111.106588" y="115.908398" transform="rotate(-0 111.106588 115.908398)">05</text>
   </g>
   <g id="text_8">
    <text style="font-size: 7.2px; font-family: 'DejaVu Sans', 'Helvetica', 'Arial', sans-serif; text-anchor: middle; fill: #52514e" x="165.718755" y="68.014716" transform="rotate(-0 165.718755 68.014716)">06</text>
   </g>
   <g id="text_9">
    <text style="font-size: 7.2px; font-family: 'DejaVu Sans', 'Helvetica', 'Arial', sans-serif; text-anchor: middle; fill: #52514e" x="87.651615" y="181.983853" transform="rotate(-0 87.651615 181.983853)">07</text>
   </g>
  </g>
  <g id="axes_2">
   <g id="line2d_15">
    <path d="M 400.68 126.149238 
L 382.078755 66.027966 
" clip-path="url(#p2b15df81bc)" style="fill: none; stroke: #2a78d6; stroke-opacity: 0.28; stroke-linecap: round"/>
   </g>
   <g id="line2d_16">
    <path d="M 301.059954 47.283738 
L 367.038753 181.609853 
" clip-path="url(#p2b15df81bc)" style="fill: none; stroke: #2a78d6; stroke-opacity: 0.28; stroke-linecap: round"/>
   </g>
   <g id="line2d_17">
    <path d="M 301.059954 47.283738 
L 327.466588 113.921648 
" clip-path="url(#p2b15df81bc)" style="fill: none; stroke: #2a78d6; stroke-opacity: 0.28; stroke-linecap: round"/>
   </g>
   <g id="line2d_18">
    <path d="M 400.68 126.149238 
L 367.038753 181.609853 
" clip-path="url(#p2b15df81bc)" style="fill: none; stroke: #2a78d6; stroke-opacity: 0.28; stroke-linecap: round"/>
   </g>
   <g id="line2d_19">
    <path d="M 400.68 126.149238 
L 327.466588 113.921648 
" clip-path="url(#p2b15df81bc)" style="fill: none; stroke: #2a78d6; stroke-opacity: 0.28; stroke-linecap: round"/>
   </g>
   <g id="line2d_20">
    <path d="M 367.038753 181.609853 
L 382.078755 66.027966 
" clip-path="url(#p2b15df81bc)" style="fill: none; stroke: #2a78d6; stroke-opacity: 0.28; stroke-linecap: round"/>
   </g>
   <g id="line2d_21">
    <path d="M 301.059954 47.283738 
L 400.68 126.149238 
" clip-path="url(#p2b15df81bc)" style="fill: none; stroke: #2a78d6; stroke-opacity: 0.28; stroke-linecap: round"/>
   </g>
   <g id="line2d_22">
    <path d="M 367.038753 181.609853 
L 304.011615 179.997103 
" clip-path="url(#p2b15df81bc)" style="fill: none; stroke: #2a78d6; stroke-opacity: 0.85; stroke-width: 2.2; stroke-linecap: round"/>
   </g>
   <g id="line2d_23">
    <path d="M 327.466588 113.921648 
L 304.011615 179.997103 
" clip-path="url(#p2b15df81bc)" style="fill: none; stroke: #2a78d6; stroke-opacity: 0.85; stroke-width: 2.2; stroke-linecap: round"/>
   </g>
   <g id="line2d_24">
    <path d="M 253.08 127.74691 
L 304.011615 179.997103 
" clip-path="url(#p2b15df81bc)" style="fill: none; stroke: #2a78d6; stroke-opacity: 0.85; stroke-width: 2.2; stroke-linecap: round"/>
   </g>
   <g id="line2d_25">
    <path d="M 367.038753 181.609853 
L 327.466588 113.921648 
" clip-path="url(#p2b15df81bc)" style="fill: none; stroke: #2a78d6; stroke-opacity: 0.85; stroke-width: 2.2; stroke-linecap: round"/>
   </g>
   <g id="PathCollection_8">
    <g clip-path="url(#p2b15df81bc)">
     <use xlink:href="#mf0a958a772" x="253.08" y="127.74691" style="fill: #ffffff; stroke: #8a8880; stroke-width: 1.1"/>
    </g>
   </g>
   <g id="PathCollection_9">
    <g clip-path="url(#p2b15df81bc)">
     <use xlink:href="#m4e09c58b10" x="301.059954" y="47.283738" style="fill: #ffffff; stroke: #8a8880; stroke-width: 1.1"/>
    </g>
   </g>
   <g id="PathCollection_10">
    <g clip-path="url(#p2b15df81bc)">
     <use xlink:href="#m4e09c58b10" x="400.68" y="126.149238" style="fill: #ffffff; stroke: #8a8880; stroke-width: 1.1"/>
    </g>
   </g>
   <g id="PathCollection_11">
    <defs>
     <path id="mc5221f7d81" d="M 0 7.28011 
C 1.930708 7.28011 3.782599 6.513032 5.147815 5.147815 
C 6.513032 3.782599 7.28011 1.930708 7.28011 0 
C 7.28011 -1.930708 6.513032 -3.782599 5.147815 -5.147815 
C 3.782599 -6.513032 1.930708 -7.28011 0 -7.28011 
C -1.930708 -7.28011 -3.782599 -6.513032 -5.147815 -5.147815 
C -6.513032 -3.782599 -7.28011 -1.930708 -7.28011 0 
C -7.28011 1.930708 -6.513032 3.782599 -5.147815 5.147815 
C -3.782599 6.513032 -1.930708 7.28011 0 7.28011 
z
" style="stroke: #8a8880; stroke-width: 1.1"/>
    </defs>
    <g clip-path="url(#p2b15df81bc)">
     <use xlink:href="#mc5221f7d81" x="367.038753" y="181.609853" style="fill: #ffffff; stroke: #8a8880; stroke-width: 1.1"/>
    </g>
   </g>
   <g id="PathCollection_12">
    <g clip-path="url(#p2b15df81bc)">
     <use xlink:href="#mc5221f7d81" x="327.466588" y="113.921648" style="fill: #ffffff; stroke: #8a8880; stroke-width: 1.1"/>
    </g>
   </g>
   <g id="PathCollection_13">
    <g clip-path="url(#p2b15df81bc)">
     <use xlink:href="#m4e09c58b10" x="382.078755" y="66.027966" style="fill: #ffffff; stroke: #8a8880; stroke-width: 1.1"/>
    </g>
   </g>
   <g id="PathCollection_14">
    <defs>
     <path id="m717d316879" d="M 0 8.031189 
C 2.129896 8.031189 4.172844 7.184972 5.678908 5.678908 
C 7.184972 4.172844 8.031189 2.129896 8.031189 0 
C 8.031189 -2.129896 7.184972 -4.172844 5.678908 -5.678908 
C 4.172844 -7.184972 2.129896 -8.031189 0 -8.031189 
C -2.129896 -8.031189 -4.172844 -7.184972 -5.678908 -5.678908 
C -7.184972 -4.172844 -8.031189 -2.129896 -8.031189 0 
C -8.031189 2.129896 -7.184972 4.172844 -5.678908 5.678908 
C -4.172844 7.184972 -2.129896 8.031189 0 8.031189 
z
" style="stroke: #8a8880; stroke-width: 1.1"/>
    </defs>
    <g clip-path="url(#p2b15df81bc)">
     <use xlink:href="#m717d316879" x="304.011615" y="179.997103" style="fill: #ffffff; stroke: #8a8880; stroke-width: 1.1"/>
    </g>
   </g>
   <g id="text_10">
    <text style="font-size: 8.5px; font-family: 'DejaVu Sans', 'Helvetica', 'Arial', sans-serif; text-anchor: middle; fill: #84827c" x="326.88" y="226.217141" transform="rotate(-0 326.88 226.217141)">acuerdo medio 0,52</text>
   </g>
   <g id="text_11">
    <text style="font-size: 9.5px; font-family: 'DejaVu Sans', 'Helvetica', 'Arial', sans-serif; text-anchor: middle; fill: #0b0b0b" x="326.88" y="14.418516" transform="rotate(-0 326.88 14.418516)">Ronda 2</text>
   </g>
   <g id="text_12">
    <text style="font-size: 7.2px; font-family: 'DejaVu Sans', 'Helvetica', 'Arial', sans-serif; text-anchor: middle; fill: #52514e" x="253.08" y="129.73366" transform="rotate(-0 253.08 129.73366)">01</text>
   </g>
   <g id="text_13">
    <text style="font-size: 7.2px; font-family: 'DejaVu Sans', 'Helvetica', 'Arial', sans-serif; text-anchor: middle; fill: #52514e" x="301.059954" y="49.270488" transform="rotate(-0 301.059954 49.270488)">02</text>
   </g>
   <g id="text_14">
    <text style="font-size: 7.2px; font-family: 'DejaVu Sans', 'Helvetica', 'Arial', sans-serif; text-anchor: middle; fill: #52514e" x="400.68" y="128.135988" transform="rotate(-0 400.68 128.135988)">03</text>
   </g>
   <g id="text_15">
    <text style="font-size: 7.2px; font-family: 'DejaVu Sans', 'Helvetica', 'Arial', sans-serif; text-anchor: middle; fill: #52514e" x="367.038753" y="183.596603" transform="rotate(-0 367.038753 183.596603)">04</text>
   </g>
   <g id="text_16">
    <text style="font-size: 7.2px; font-family: 'DejaVu Sans', 'Helvetica', 'Arial', sans-serif; text-anchor: middle; fill: #52514e" x="327.466588" y="115.908398" transform="rotate(-0 327.466588 115.908398)">05</text>
   </g>
   <g id="text_17">
    <text style="font-size: 7.2px; font-family: 'DejaVu Sans', 'Helvetica', 'Arial', sans-serif; text-anchor: middle; fill: #52514e" x="382.078755" y="68.014716" transform="rotate(-0 382.078755 68.014716)">06</text>
   </g>
   <g id="text_18">
    <text style="font-size: 7.2px; font-family: 'DejaVu Sans', 'Helvetica', 'Arial', sans-serif; text-anchor: middle; fill: #52514e" x="304.011615" y="181.983853" transform="rotate(-0 304.011615 181.983853)">07</text>
   </g>
  </g>
  <g id="axes_3">
   <g id="line2d_26">
    <path d="M 469.44 127.74691 
L 583.398753 181.609853 
" clip-path="url(#p64b92a8f44)" style="fill: none; stroke: #2a78d6; stroke-opacity: 0.28; stroke-linecap: round"/>
   </g>
   <g id="line2d_27">
    <path d="M 617.04 126.149238 
L 598.438755 66.027966 
" clip-path="url(#p64b92a8f44)" style="fill: none; stroke: #2a78d6; stroke-opacity: 0.28; stroke-linecap: round"/>
   </g>
   <g id="line2d_28">
    <path d="M 617.04 126.149238 
L 520.371615 179.997103 
" clip-path="url(#p64b92a8f44)" style="fill: none; stroke: #2a78d6; stroke-opacity: 0.28; stroke-linecap: round"/>
   </g>
   <g id="line2d_29">
    <path d="M 598.438755 66.027966 
L 520.371615 179.997103 
" clip-path="url(#p64b92a8f44)" style="fill: none; stroke: #2a78d6; stroke-opacity: 0.28; stroke-linecap: round"/>
   </g>
   <g id="line2d_30">
    <path d="M 469.44 127.74691 
L 543.826588 113.921648 
" clip-path="url(#p64b92a8f44)" style="fill: none; stroke: #2a78d6; stroke-opacity: 0.28; stroke-linecap: round"/>
   </g>
   <g id="line2d_31">
    <path d="M 583.398753 181.609853 
L 543.826588 113.921648 
" clip-path="url(#p64b92a8f44)" style="fill: none; stroke: #2a78d6; stroke-opacity: 0.28; stroke-linecap: round"/>
   </g>
   <g id="line2d_32">
    <path d="M 583.398753 181.609853 
L 598.438755 66.027966 
" clip-path="url(#p64b92a8f44)" style="fill: none; stroke: #2a78d6; stroke-opacity: 0.28; stroke-linecap: round"/>
   </g>
   <g id="line2d_33">
    <path d="M 583.398753 181.609853 
L 520.371615 179.997103 
" clip-path="url(#p64b92a8f44)" style="fill: none; stroke: #2a78d6; stroke-opacity: 0.28; stroke-linecap: round"/>
   </g>
   <g id="line2d_34">
    <path d="M 617.04 126.149238 
L 543.826588 113.921648 
" clip-path="url(#p64b92a8f44)" style="fill: none; stroke: #2a78d6; stroke-opacity: 0.85; stroke-width: 2.2; stroke-linecap: round"/>
   </g>
   <g id="line2d_35">
    <path d="M 543.826588 113.921648 
L 520.371615 179.997103 
" clip-path="url(#p64b92a8f44)" style="fill: none; stroke: #2a78d6; stroke-opacity: 0.85; stroke-width: 2.2; stroke-linecap: round"/>
   </g>
   <g id="line2d_36">
    <path d="M 469.44 127.74691 
L 520.371615 179.997103 
" clip-path="url(#p64b92a8f44)" style="fill: none; stroke: #2a78d6; stroke-opacity: 0.85; stroke-width: 2.2; stroke-linecap: round"/>
   </g>
   <g id="PathCollection_15">
    <g clip-path="url(#p64b92a8f44)">
     <use xlink:href="#mf0a958a772" x="469.44" y="127.74691" style="fill: #ffffff; stroke: #8a8880; stroke-width: 1.1"/>
    </g>
   </g>
   <g id="PathCollection_16">
    <g clip-path="url(#p64b92a8f44)">
     <use xlink:href="#m4e09c58b10" x="517.419954" y="47.283738" style="fill: #ffffff; stroke: #8a8880; stroke-width: 1.1"/>
    </g>
   </g>
   <g id="PathCollection_17">
    <g clip-path="url(#p64b92a8f44)">
     <use xlink:href="#mf0a958a772" x="617.04" y="126.149238" style="fill: #ffffff; stroke: #8a8880; stroke-width: 1.1"/>
    </g>
   </g>
   <g id="PathCollection_18">
    <g clip-path="url(#p64b92a8f44)">
     <use xlink:href="#m4e09c58b10" x="583.398753" y="181.609853" style="fill: #ffffff; stroke: #8a8880; stroke-width: 1.1"/>
    </g>
   </g>
   <g id="PathCollection_19">
    <g clip-path="url(#p64b92a8f44)">
     <use xlink:href="#mc5221f7d81" x="543.826588" y="113.921648" style="fill: #ffffff; stroke: #8a8880; stroke-width: 1.1"/>
    </g>
   </g>
   <g id="PathCollection_20">
    <g clip-path="url(#p64b92a8f44)">
     <use xlink:href="#m4e09c58b10" x="598.438755" y="66.027966" style="fill: #ffffff; stroke: #8a8880; stroke-width: 1.1"/>
    </g>
   </g>
   <g id="PathCollection_21">
    <g clip-path="url(#p64b92a8f44)">
     <use xlink:href="#mc5221f7d81" x="520.371615" y="179.997103" style="fill: #ffffff; stroke: #8a8880; stroke-width: 1.1"/>
    </g>
   </g>
   <g id="text_19">
    <text style="font-size: 8.5px; font-family: 'DejaVu Sans', 'Helvetica', 'Arial', sans-serif; text-anchor: middle; fill: #84827c" x="543.24" y="226.217141" transform="rotate(-0 543.24 226.217141)">acuerdo medio 0,49</text>
   </g>
   <g id="text_20">
    <text style="font-size: 9.5px; font-family: 'DejaVu Sans', 'Helvetica', 'Arial', sans-serif; text-anchor: middle; fill: #0b0b0b" x="543.24" y="14.418516" transform="rotate(-0 543.24 14.418516)">Ronda 3</text>
   </g>
   <g id="text_21">
    <text style="font-size: 7.2px; font-family: 'DejaVu Sans', 'Helvetica', 'Arial', sans-serif; text-anchor: middle; fill: #52514e" x="469.44" y="129.73366" transform="rotate(-0 469.44 129.73366)">01</text>
   </g>
   <g id="text_22">
    <text style="font-size: 7.2px; font-family: 'DejaVu Sans', 'Helvetica', 'Arial', sans-serif; text-anchor: middle; fill: #52514e" x="517.419954" y="49.270488" transform="rotate(-0 517.419954 49.270488)">02</text>
   </g>
   <g id="text_23">
    <text style="font-size: 7.2px; font-family: 'DejaVu Sans', 'Helvetica', 'Arial', sans-serif; text-anchor: middle; fill: #52514e" x="617.04" y="128.135988" transform="rotate(-0 617.04 128.135988)">03</text>
   </g>
   <g id="text_24">
    <text style="font-size: 7.2px; font-family: 'DejaVu Sans', 'Helvetica', 'Arial', sans-serif; text-anchor: middle; fill: #52514e" x="583.398753" y="183.596603" transform="rotate(-0 583.398753 183.596603)">04</text>
   </g>
   <g id="text_25">
    <text style="font-size: 7.2px; font-family: 'DejaVu Sans', 'Helvetica', 'Arial', sans-serif; text-anchor: middle; fill: #52514e" x="543.826588" y="115.908398" transform="rotate(-0 543.826588 115.908398)">05</text>
   </g>
   <g id="text_26">
    <text style="font-size: 7.2px; font-family: 'DejaVu Sans', 'Helvetica', 'Arial', sans-serif; text-anchor: middle; fill: #52514e" x="598.438755" y="68.014716" transform="rotate(-0 598.438755 68.014716)">06</text>
   </g>
   <g id="text_27">
    <text style="font-size: 7.2px; font-family: 'DejaVu Sans', 'Helvetica', 'Arial', sans-serif; text-anchor: middle; fill: #52514e" x="520.371615" y="181.983853" transform="rotate(-0 520.371615 181.983853)">07</text>
   </g>
  </g>
 </g>
 <defs>
  <clipPath id="p41c1130894">
   <rect x="7.2" y="20.418516" width="206.64" height="188.05656"/>
  </clipPath>
  <clipPath id="p2b15df81bc">
   <rect x="223.56" y="20.418516" width="206.64" height="188.05656"/>
  </clipPath>
  <clipPath id="p64b92a8f44">
   <rect x="439.92" y="20.418516" width="206.64" height="188.05656"/>
  </clipPath>
 </defs>
</svg>
