<?xml version="1.0" encoding="utf-8" standalone="no"?>
<!DOCTYPE svg PUBLIC "-//W3C//DTD SVG 1.1//EN"
  "http://www.w3.org/Graphics/SVG/1.1/DTD/svg11.dtd">
<svg xmlns:xlink="http://www.w3.org/1999/xlink" width="465.259002pt" height="275.203062pt" viewBox="0 0 465.259002 275.203062" xmlns="http://www.w3.org/2000/svg" version="1.1">
 <metadata>
  <rdf:RDF xmlns:dc="http://purl.org/dc/elements/1.1/" xmlns:cc="http://creativecommons.org/ns#" xmlns:rdf="http://www.w3.org/1999/02/22-rdf-syntax-ns#">
   <cc:Work>
    <dc:type rdf:resource="http://purl.org/dc/dcmitype/StillImage"/>
    <dc:date>2026-09-20T07:21:01.174217</dc:date>
    <dc:format>image/svg+xml</dc:format>
    <dc:creator>
     <cc:Agent>
      <dc:title>Matplotlib v3.10.0, https://matplotlib.org/</dc:title>
     </cc:Agent>
    </dc:creator>
   </cc:Work>
  </rdf:RDF>
 </metadata>
 <defs>
  <style type="text/css">*{stroke-linejoin: round; stroke-linecap: butt}</style>
 </defs>
 <g id="figure_1">
  <g id="patch_1">
   <path d="M 0 275.203062 
L 465.259002 275.203062 
L 465.259002 0 
L 0 0 
z
" style="fill: #ffffff"/>
  </g>
  <g id="axes_1">
   <g id="patch_2">
    <path d="M 7.2 256.276656 
L 455.558087 256.276656 
L 455.558087 35.776656 
L 7.2 35.776656 
z
" style="fill: #ffffff"/>
   </g>
   <g id="patch_3">
    <path d="M 112.466681 248.258474 
C 168.024096 248.258474 168.024096 248.258474 223.581512 248.258474 
L 223.581512 210.57302 
C 168.024096 210.57302 168.024096 212.978474 112.466681 212.978474 
z
" clip-path="url(#p71decad8e7)" style="fill: #e34948; opacity: 0.22"/>
   </g>
   <g id="patch_4">
    <path d="M 112.466681 212.978474 
C 168.024096 212.978474 168.024096 179.70302 223.581512 179.70302 
L 223.581512 160.860293 
C 168.024096 160.860293 168.024096 195.338474 112.466681 195.338474 
z
" clip-path="url(#p71decad8e7)" style="fill: #e34948; opacity: 0.6"/>
   </g>
   <g id="patch_5">
    <path d="M 112.466681 183.311202 
C 168.024096 183.311202 168.024096 160.860293 223.581512 160.860293 
L 223.581512 47.803929 
C 168.024096 47.803929 168.024096 77.471202 112.466681 77.471202 
z
" clip-path="url(#p71decad8e7)" style="fill: #8a8880; opacity: 0.22"/>
   </g>
   <g id="patch_6">
    <path d="M 112.466681 65.443929 
C 168.024096 65.443929 168.024096 210.57302 223.581512 210.57302 
L 223.581512 191.730293 
C 168.024096 191.730293 168.024096 47.803929 112.466681 47.803929 
z
" clip-path="url(#p71decad8e7)" style="fill: #1b9e77; opacity: 0.6"/>
   </g>
   <g id="patch_7">
    <path d="M 239.176575 248.258474 
C 294.733991 248.258474 294.733991 248.258474 350.291406 248.258474 
L 350.291406 206.385747 
C 294.733991 206.385747 294.733991 210.57302 239.176575 210.57302 
z
" clip-path="url(#p71decad8e7)" style="fill: #e34948; opacity: 0.6"/>
   </g>
   <g id="patch_8">
    <path d="M 239.176575 210.57302 
C 294.733991 210.57302 294.733991 194.358474 350.291406 194.358474 
L 350.291406 173.422111 
C 294.733991 173.422111 294.733991 191.730293 239.176575 191.730293 
z
" clip-path="url(#p71decad8e7)" style="fill: #e34948; opacity: 0.6"/>
   </g>
   <g id="patch_9">
    <path d="M 239.176575 179.70302 
C 294.733991 179.70302 294.733991 173.422111 350.291406 173.422111 
L 350.291406 47.803929 
C 294.733991 47.803929 294.733991 66.646656 239.176575 66.646656 
z
" clip-path="url(#p71decad8e7)" style="fill: #8a8880; opacity: 0.22"/>
   </g>
   <g id="matplotlib.axis_1">
    <g id="xtick_1">
     <g id="line2d_1"/>
     <g id="text_1">
      <text style="font-size: 8.5px; font-family: 'DejaVu Sans', 'Helvetica', 'Arial', sans-serif; text-anchor: middle; fill: #84827c" x="104.669149" y="266.235328" transform="rotate(-0 104.669149 266.235328)">Ronda 1</text>
     </g>
    </g>
    <g id="xtick_2">
     <g id="line2d_2"/>
     <g id="text_2">
      <text style="font-size: 8.5px; font-family: 'DejaVu Sans', 'Helvetica', 'Arial', sans-serif; text-anchor: middle; fill: #84827c" x="231.379043" y="266.235328" transform="rotate(-0 231.379043 266.235328)">Ronda 2</text>
     </g>
    </g>
    <g id="xtick_3">
     <g id="line2d_3"/>
     <g id="text_3">
      <text style="font-size: 8.5px; font-family: 'DejaVu Sans', 'Helvetica', 'Arial', sans-serif; text-anchor: middle; fill: #84827c" x="358.088938" y="266.235328" transform="rotate(-0 358.088938 266.235328)">Ronda 3</text>
     </g>
    </g>
   </g>
   <g id="matplotlib.axis_2"/>
   <g id="patch_10">
    <path d="M 96.871617 248.258474 
L 112.466681 248.258474 
L 112.466681 195.338474 
L 96.871617 195.338474 
z
" clip-path="url(#p71decad8e7)" style="fill: #e34948; stroke: #ffffff; stroke-width: 1.2; stroke-linejoin: miter"/>
   </g>
   <g id="patch_11">
    <path d="M 96.871617 183.311202 
L 112.466681 183.311202 
L 112.466681 77.471202 
L 96.871617 77.471202 
z
" clip-path="url(#p71decad8e7)" style="fill: #8a8880; stroke: #ffffff; stroke-width: 1.2; stroke-linejoin: miter"/>
   </g>
   <g id="patch_12">
    <path d="M 96.871617 65.443929 
L 112.466681 65.443929 
L 112.466681 47.803929 
L 96.871617 47.803929 
z
" clip-path="url(#p71decad8e7)" style="fill: #1b9e77; stroke: #ffffff; stroke-width: 1.2; stroke-linejoin: miter"/>
   </g>
   <g id="patch_13">
    <path d="M 223.581512 248.258474 
L 239.176575 248.258474 
L 239.176575 191.730293 
L 223.581512 191.730293 
z
" clip-path="url(#p71decad8e7)" style="fill: #e34948; stroke: #ffffff; stroke-width: 1.2; stroke-linejoin: miter"/>
   </g>
   <g id="patch_14">
    <path d="M 223.581512 179.70302 
L 239.176575 179.70302 
L 239.176575 47.803929 
L 223.581512 47.803929 
z
" clip-path="url(#p71decad8e7)" style="fill: #8a8880; stroke: #ffffff; stroke-width: 1.2; stroke-linejoin: miter"/>
   </g>
   <g id="patch_15">
    <path d="M 350.291406 248.258474 
L 365.88647 248.258474 
L 365.88647 206.385747 
L 350.291406 206.385747 
z
" clip-path="url(#p71decad8e7)" style="fill: #2a78d6; stroke: #ffffff; stroke-width: 1.2; stroke-linejoin: miter"/>
   </g>
   <g id="patch_16">
    <path d="M 350.291406 194.358474 
L 365.88647 194.358474 
L 365.88647 47.803929 
L 350.291406 47.803929 
z
" clip-path="url(#p71decad8e7)" style="fill: #8a8880; stroke: #ffffff; stroke-width: 1.2; stroke-linejoin: miter"/>
   </g>
   <g id="text_4">
    <text style="font-size: 9.5px; font-family: 'DejaVu Sans', 'Helvetica', 'Arial', sans-serif; fill: #0b0b0b" transform="translate(7.2 14.418516)">P3_Q9 — ¿Las artes liberales encajan con la educaci…</text>
    <text style="font-size: 9.5px; font-family: 'DejaVu Sans', 'Helvetica', 'Arial', sans-serif; fill: #0b0b0b" transform="translate(7.2 25.776656)">4 de 9 cambian de opción entre la 1.ª y la 3.ª</text>
   </g>
   <g id="text_5">
    <text style="font-weight: 700; font-size: 8.5px; font-family: 'DejaVu Sans', 'Helvetica', 'Arial', sans-serif; text-anchor: middle; fill: #ffffff" x="104.669149" y="224.143943" transform="rotate(-0 104.669149 224.143943)">3</text>
   </g>
   <g id="text_6">
    <text style="font-size: 8px; font-family: 'DejaVu Sans', 'Helvetica', 'Arial', sans-serif; text-anchor: end; fill: #52514e" x="89.074085" y="224.005974" transform="rotate(-0 89.074085 224.005974)">No</text>
   </g>
   <g id="text_7">
    <text style="font-weight: 700; font-size: 8.5px; font-family: 'DejaVu Sans', 'Helvetica', 'Arial', sans-serif; text-anchor: middle; fill: #ffffff" x="104.669149" y="132.73667" transform="rotate(-0 104.669149 132.73667)">6</text>
   </g>
   <g id="text_8">
    <text style="font-size: 8px; font-family: 'DejaVu Sans', 'Helvetica', 'Arial', sans-serif; text-anchor: end; fill: #52514e" x="89.074085" y="132.598702" transform="rotate(-0 89.074085 132.598702)">Yes</text>
   </g>
   <g id="text_9">
    <text style="font-weight: 700; font-size: 8.5px; font-family: 'DejaVu Sans', 'Helvetica', 'Arial', sans-serif; text-anchor: middle; fill: #ffffff" x="104.669149" y="58.969398" transform="rotate(-0 104.669149 58.969398)">1</text>
   </g>
   <g id="text_10">
    <text style="font-size: 8px; font-family: 'DejaVu Sans', 'Helvetica', 'Arial', sans-serif; text-anchor: end; fill: #52514e" x="89.074085" y="58.831429" transform="rotate(-0 89.074085 58.831429)">Yes, only specific…</text>
   </g>
   <g id="text_11">
    <text style="font-weight: 700; font-size: 8.5px; font-family: 'DejaVu Sans', 'Helvetica', 'Arial', sans-serif; text-anchor: middle; fill: #ffffff" x="231.379043" y="222.339852" transform="rotate(-0 231.379043 222.339852)">3</text>
   </g>
   <g id="text_12">
    <text style="font-weight: 700; font-size: 8.5px; font-family: 'DejaVu Sans', 'Helvetica', 'Arial', sans-serif; text-anchor: middle; fill: #ffffff" x="231.379043" y="116.098943" transform="rotate(-0 231.379043 116.098943)">7</text>
   </g>
   <g id="text_13">
    <text style="font-weight: 700; font-size: 8.5px; font-family: 'DejaVu Sans', 'Helvetica', 'Arial', sans-serif; text-anchor: middle; fill: #ffffff" x="358.088938" y="229.66758" transform="rotate(-0 358.088938 229.66758)">2</text>
   </g>
   <g id="text_14">
    <text style="font-size: 8px; font-family: 'DejaVu Sans', 'Helvetica', 'Arial', sans-serif; text-anchor: start; fill: #52514e" x="373.684002" y="229.529611" transform="rotate(-0 373.684002 229.529611)">Depends on the rel…</text>
   </g>
   <g id="text_15">
    <text style="font-weight: 700; font-size: 8.5px; font-family: 'DejaVu Sans', 'Helvetica', 'Arial', sans-serif; text-anchor: middle; fill: #ffffff" x="358.088938" y="123.42667" transform="rotate(-0 358.088938 123.42667)">7</text>
   </g>
   <g id="text_16">
    <text style="font-size: 8px; font-family: 'DejaVu Sans', 'Helvetica', 'Arial', sans-serif; text-anchor: start; fill: #52514e" x="373.684002" y="123.288702" transform="rotate(-0 373.684002 123.288702)">Yes</text>
   </g>
  </g>
 </g>
 <defs>
  <clipPath id="p71decad8e7">
   <rect x="7.2" y="35.776656" width="448.358087" height="220.5"/>
  </clipPath>
 </defs>
</svg>
