<?xml version="1.0" encoding="utf-8" standalone="no"?>
<!DOCTYPE svg PUBLIC "-//W3C//DTD SVG 1.1//EN"
  "http://www.w3.org/Graphics/SVG/1.1/DTD/svg11.dtd">
<svg xmlns:xlink="http://www.w3.org/1999/xlink" width="653.76pt" height="235.184875pt" viewBox="0 0 653.76 235.184875" xmlns="http://www.w3.org/2000/svg" version="1.1">
 <metadata>
  <rdf:RDF xmlns:dc="http://purl.org/dc/elements/1.1/" xmlns:cc="http://creativecommons.org/ns#" xmlns:rdf="http://www.w3.org/1999/02/22-rdf-syntax-ns#">
   <cc:Work>
    <dc:type rdf:resource="http://purl.org/dc/dcmitype/StillImage"/>
    <dc:date>2026-09-03T04:54:22.387973</dc:date>
    <dc:format>image/svg+xml</dc:format>
    <dc:creator>
     <cc:Agent>
      <dc:title>Matplotlib v3.10.0, https://matplotlib.org/</dc:title>
     </cc:Agent>
    </dc:creator>
   </cc:Work>
  </rdf:RDF>
 </metadata>
 <defs>
  <style type="text/css">*{stroke-linejoin: round; stroke-linecap: butt}</style>
 </defs>
 <g id="figure_1">
  <g id="patch_1">
   <path d="M 0 235.184875 
L 653.76 235.184875 
L 653.76 0 
L 0 0 
z
" style="fill: #ffffff"/>
  </g>
  <g id="axes_1">
   <g id="line2d_1">
    <path d="M 134.625889 47.283738 
L 172.26029 134.576391 
" clip-path="url(#pf49cc30583)" style="fill: none; stroke: #2a78d6; stroke-opacity: 0.28; stroke-linecap: round"/>
   </g>
   <g id="line2d_2">
    <path d="M 134.625889 47.283738 
L 126.283721 107.75556 
" clip-path="url(#pf49cc30583)" style="fill: none; stroke: #2a78d6; stroke-opacity: 0.28; stroke-linecap: round"/>
   </g>
   <g id="line2d_3">
    <path d="M 172.26029 134.576391 
L 126.283721 107.75556 
" clip-path="url(#pf49cc30583)" style="fill: none; stroke: #2a78d6; stroke-opacity: 0.28; stroke-linecap: round"/>
   </g>
   <g id="line2d_4">
    <path d="M 172.26029 134.576391 
L 77.500764 136.822334 
" clip-path="url(#pf49cc30583)" style="fill: none; stroke: #2a78d6; stroke-opacity: 0.28; stroke-linecap: round"/>
   </g>
   <g id="line2d_5">
    <path d="M 36.72 86.970804 
L 134.625889 47.283738 
" clip-path="url(#pf49cc30583)" style="fill: none; stroke: #2a78d6; stroke-opacity: 0.28; stroke-linecap: round"/>
   </g>
   <g id="line2d_6">
    <path d="M 36.72 86.970804 
L 106.622269 161.700578 
" clip-path="url(#pf49cc30583)" style="fill: none; stroke: #2a78d6; stroke-opacity: 0.28; stroke-linecap: round"/>
   </g>
   <g id="line2d_7">
    <path d="M 36.72 86.970804 
L 126.283721 107.75556 
" clip-path="url(#pf49cc30583)" style="fill: none; stroke: #2a78d6; stroke-opacity: 0.28; stroke-linecap: round"/>
   </g>
   <g id="line2d_8">
    <path d="M 134.625889 47.283738 
L 106.622269 161.700578 
" clip-path="url(#pf49cc30583)" style="fill: none; stroke: #2a78d6; stroke-opacity: 0.28; stroke-linecap: round"/>
   </g>
   <g id="line2d_9">
    <path d="M 134.625889 47.283738 
L 89.083303 95.804282 
" clip-path="url(#pf49cc30583)" style="fill: none; stroke: #2a78d6; stroke-opacity: 0.28; stroke-linecap: round"/>
   </g>
   <g id="line2d_10">
    <path d="M 134.625889 47.283738 
L 148.89948 181.609853 
" clip-path="url(#pf49cc30583)" style="fill: none; stroke: #2a78d6; stroke-opacity: 0.28; stroke-linecap: round"/>
   </g>
   <g id="line2d_11">
    <path d="M 184.32 85.028073 
L 172.26029 134.576391 
" clip-path="url(#pf49cc30583)" style="fill: none; stroke: #2a78d6; stroke-opacity: 0.28; stroke-linecap: round"/>
   </g>
   <g id="line2d_12">
    <path d="M 184.32 85.028073 
L 148.89948 181.609853 
" clip-path="url(#pf49cc30583)" style="fill: none; stroke: #2a78d6; stroke-opacity: 0.28; stroke-linecap: round"/>
   </g>
   <g id="line2d_13">
    <path d="M 106.622269 161.700578 
L 126.283721 107.75556 
" clip-path="url(#pf49cc30583)" style="fill: none; stroke: #2a78d6; stroke-opacity: 0.28; stroke-linecap: round"/>
   </g>
   <g id="line2d_14">
    <path d="M 106.622269 161.700578 
L 98.550859 47.691037 
" clip-path="url(#pf49cc30583)" style="fill: none; stroke: #2a78d6; stroke-opacity: 0.28; stroke-linecap: round"/>
   </g>
   <g id="line2d_15">
    <path d="M 106.622269 161.700578 
L 148.89948 181.609853 
" clip-path="url(#pf49cc30583)" style="fill: none; stroke: #2a78d6; stroke-opacity: 0.28; stroke-linecap: round"/>
   </g>
   <g id="line2d_16">
    <path d="M 172.26029 134.576391 
L 148.89948 181.609853 
" clip-path="url(#pf49cc30583)" style="fill: none; stroke: #2a78d6; stroke-opacity: 0.28; stroke-linecap: round"/>
   </g>
   <g id="line2d_17">
    <path d="M 126.283721 107.75556 
L 98.550859 47.691037 
" clip-path="url(#pf49cc30583)" style="fill: none; stroke: #2a78d6; stroke-opacity: 0.28; stroke-linecap: round"/>
   </g>
   <g id="line2d_18">
    <path d="M 126.283721 107.75556 
L 89.083303 95.804282 
" clip-path="url(#pf49cc30583)" style="fill: none; stroke: #2a78d6; stroke-opacity: 0.28; stroke-linecap: round"/>
   </g>
   <g id="line2d_19">
    <path d="M 77.500764 136.822334 
L 98.550859 47.691037 
" clip-path="url(#pf49cc30583)" style="fill: none; stroke: #2a78d6; stroke-opacity: 0.28; stroke-linecap: round"/>
   </g>
   <g id="line2d_20">
    <path d="M 77.500764 136.822334 
L 148.89948 181.609853 
" clip-path="url(#pf49cc30583)" style="fill: none; stroke: #2a78d6; stroke-opacity: 0.28; stroke-linecap: round"/>
   </g>
   <g id="line2d_21">
    <path d="M 98.550859 47.691037 
L 89.083303 95.804282 
" clip-path="url(#pf49cc30583)" style="fill: none; stroke: #2a78d6; stroke-opacity: 0.28; stroke-linecap: round"/>
   </g>
   <g id="line2d_22">
    <path d="M 89.083303 95.804282 
L 148.89948 181.609853 
" clip-path="url(#pf49cc30583)" style="fill: none; stroke: #2a78d6; stroke-opacity: 0.28; stroke-linecap: round"/>
   </g>
   <g id="line2d_23">
    <path d="M 134.625889 47.283738 
L 77.500764 136.822334 
" clip-path="url(#pf49cc30583)" style="fill: none; stroke: #2a78d6; stroke-opacity: 0.85; stroke-width: 2.2; stroke-linecap: round"/>
   </g>
   <g id="line2d_24">
    <path d="M 106.622269 161.700578 
L 89.083303 95.804282 
" clip-path="url(#pf49cc30583)" style="fill: none; stroke: #2a78d6; stroke-opacity: 0.85; stroke-width: 2.2; stroke-linecap: round"/>
   </g>
   <g id="line2d_25">
    <path d="M 126.283721 107.75556 
L 77.500764 136.822334 
" clip-path="url(#pf49cc30583)" style="fill: none; stroke: #2a78d6; stroke-opacity: 0.85; stroke-width: 2.2; stroke-linecap: round"/>
   </g>
   <g id="line2d_26">
    <path d="M 36.72 86.970804 
L 77.500764 136.822334 
" clip-path="url(#pf49cc30583)" style="fill: none; stroke: #2a78d6; stroke-opacity: 0.85; stroke-width: 2.2; stroke-linecap: round"/>
   </g>
   <g id="line2d_27">
    <path d="M 36.72 86.970804 
L 89.083303 95.804282 
" clip-path="url(#pf49cc30583)" style="fill: none; stroke: #2a78d6; stroke-opacity: 0.85; stroke-width: 2.2; stroke-linecap: round"/>
   </g>
   <g id="line2d_28">
    <path d="M 106.622269 161.700578 
L 77.500764 136.822334 
" clip-path="url(#pf49cc30583)" style="fill: none; stroke: #2a78d6; stroke-opacity: 0.85; stroke-width: 2.2; stroke-linecap: round"/>
   </g>
   <g id="line2d_29">
    <path d="M 77.500764 136.822334 
L 89.083303 95.804282 
" clip-path="url(#pf49cc30583)" style="fill: none; stroke: #2a78d6; stroke-opacity: 0.85; stroke-width: 2.2; stroke-linecap: round"/>
   </g>
   <g id="PathCollection_1">
    <defs>
     <path id="mff0e82865e" d="M 0 7.28011 
C 1.930708 7.28011 3.782599 6.513032 5.147815 5.147815 
C 6.513032 3.782599 7.28011 1.930708 7.28011 0 
C 7.28011 -1.930708 6.513032 -3.782599 5.147815 -5.147815 
C 3.782599 -6.513032 1.930708 -7.28011 0 -7.28011 
C -1.930708 -7.28011 -3.782599 -6.513032 -5.147815 -5.147815 
C -6.513032 -3.782599 -7.28011 -1.930708 -7.28011 0 
C -7.28011 1.930708 -6.513032 3.782599 -5.147815 5.147815 
C -3.782599 6.513032 -1.930708 7.28011 0 7.28011 
z
" style="stroke: #8a8880; stroke-width: 1.1"/>
    </defs>
    <g clip-path="url(#pf49cc30583)">
     <use xlink:href="#mff0e82865e" x="36.72" y="86.970804" style="fill: #ffffff; stroke: #8a8880; stroke-width: 1.1"/>
    </g>
   </g>
   <g id="PathCollection_2">
    <defs>
     <path id="m049918de39" d="M 0 6.442049 
C 1.708451 6.442049 3.347159 5.763274 4.555217 4.555217 
C 5.763274 3.347159 6.442049 1.708451 6.442049 0 
C 6.442049 -1.708451 5.763274 -3.347159 4.555217 -4.555217 
C 3.347159 -5.763274 1.708451 -6.442049 0 -6.442049 
C -1.708451 -6.442049 -3.347159 -5.763274 -4.555217 -4.555217 
C -5.763274 -3.347159 -6.442049 -1.708451 -6.442049 0 
C -6.442049 1.708451 -5.763274 3.347159 -4.555217 4.555217 
C -3.347159 5.763274 -1.708451 6.442049 0 6.442049 
z
" style="stroke: #8a8880; stroke-width: 1.1"/>
    </defs>
    <g clip-path="url(#pf49cc30583)">
     <use xlink:href="#m049918de39" x="134.625889" y="47.283738" style="fill: #ffffff; stroke: #8a8880; stroke-width: 1.1"/>
    </g>
   </g>
   <g id="PathCollection_3">
    <defs>
     <path id="m0022daaf7b" d="M 0 5.477226 
C 1.452577 5.477226 2.845856 4.900111 3.872983 3.872983 
C 4.900111 2.845856 5.477226 1.452577 5.477226 0 
C 5.477226 -1.452577 4.900111 -2.845856 3.872983 -3.872983 
C 2.845856 -4.900111 1.452577 -5.477226 0 -5.477226 
C -1.452577 -5.477226 -2.845856 -4.900111 -3.872983 -3.872983 
C -4.900111 -2.845856 -5.477226 -1.452577 -5.477226 0 
C -5.477226 1.452577 -4.900111 2.845856 -3.872983 3.872983 
C -2.845856 4.900111 -1.452577 5.477226 0 5.477226 
z
" style="stroke: #8a8880; stroke-width: 1.1"/>
    </defs>
    <g clip-path="url(#pf49cc30583)">
     <use xlink:href="#m0022daaf7b" x="184.32" y="85.028073" style="fill: #ffffff; stroke: #8a8880; stroke-width: 1.1"/>
    </g>
   </g>
   <g id="PathCollection_4">
    <g clip-path="url(#pf49cc30583)">
     <use xlink:href="#mff0e82865e" x="106.622269" y="161.700578" style="fill: #ffffff; stroke: #8a8880; stroke-width: 1.1"/>
    </g>
   </g>
   <g id="PathCollection_5">
    <g clip-path="url(#pf49cc30583)">
     <use xlink:href="#m0022daaf7b" x="172.26029" y="134.576391" style="fill: #ffffff; stroke: #8a8880; stroke-width: 1.1"/>
    </g>
   </g>
   <g id="PathCollection_6">
    <g clip-path="url(#pf49cc30583)">
     <use xlink:href="#m049918de39" x="126.283721" y="107.75556" style="fill: #ffffff; stroke: #8a8880; stroke-width: 1.1"/>
    </g>
   </g>
   <g id="PathCollection_7">
    <defs>
     <path id="mfca62e30c8" d="M 0 9.354143 
C 2.480748 9.354143 4.860225 8.368532 6.614378 6.614378 
C 8.368532 4.860225 9.354143 2.480748 9.354143 0 
C 9.354143 -2.480748 8.368532 -4.860225 6.614378 -6.614378 
C 4.860225 -8.368532 2.480748 -9.354143 0 -9.354143 
C -2.480748 -9.354143 -4.860225 -8.368532 -6.614378 -6.614378 
C -8.368532 -4.860225 -9.354143 -2.480748 -9.354143 0 
C -9.354143 2.480748 -8.368532 4.860225 -6.614378 6.614378 
C -4.860225 8.368532 -2.480748 9.354143 0 9.354143 
z
" style="stroke: #8a8880; stroke-width: 1.1"/>
    </defs>
    <g clip-path="url(#pf49cc30583)">
     <use xlink:href="#mfca62e30c8" x="77.500764" y="136.822334" style="fill: #ffffff; stroke: #8a8880; stroke-width: 1.1"/>
    </g>
   </g>
   <g id="PathCollection_8">
    <g clip-path="url(#pf49cc30583)">
     <use xlink:href="#m0022daaf7b" x="98.550859" y="47.691037" style="fill: #ffffff; stroke: #8a8880; stroke-width: 1.1"/>
    </g>
   </g>
   <g id="PathCollection_9">
    <defs>
     <path id="m57d0b6b07a" d="M 0 8.031189 
C 2.129896 8.031189 4.172844 7.184972 5.678908 5.678908 
C 7.184972 4.172844 8.031189 2.129896 8.031189 0 
C 8.031189 -2.129896 7.184972 -4.172844 5.678908 -5.678908 
C 4.172844 -7.184972 2.129896 -8.031189 0 -8.031189 
C -2.129896 -8.031189 -4.172844 -7.184972 -5.678908 -5.678908 
C -7.184972 -4.172844 -8.031189 -2.129896 -8.031189 0 
C -8.031189 2.129896 -7.184972 4.172844 -5.678908 5.678908 
C -4.172844 7.184972 -2.129896 8.031189 0 8.031189 
z
" style="stroke: #8a8880; stroke-width: 1.1"/>
    </defs>
    <g clip-path="url(#pf49cc30583)">
     <use xlink:href="#m57d0b6b07a" x="89.083303" y="95.804282" style="fill: #ffffff; stroke: #8a8880; stroke-width: 1.1"/>
    </g>
   </g>
   <g id="PathCollection_10">
    <g clip-path="url(#pf49cc30583)">
     <use xlink:href="#m0022daaf7b" x="148.89948" y="181.609853" style="fill: #ffffff; stroke: #8a8880; stroke-width: 1.1"/>
    </g>
   </g>
   <g id="text_1">
    <text style="font-size: 8.5px; font-family: 'DejaVu Sans', 'Helvetica', 'Arial', sans-serif; text-anchor: middle; fill: #84827c" x="110.52" y="226.217141" transform="rotate(-0 110.52 226.217141)">acuerdo medio 0,59</text>
   </g>
   <g id="text_2">
    <text style="font-size: 9.5px; font-family: 'DejaVu Sans', 'Helvetica', 'Arial', sans-serif; text-anchor: middle; fill: #0b0b0b" x="110.52" y="14.418516" transform="rotate(-0 110.52 14.418516)">Ronda 1</text>
   </g>
   <g id="text_3">
    <text style="font-size: 7.2px; font-family: 'DejaVu Sans', 'Helvetica', 'Arial', sans-serif; text-anchor: middle; fill: #52514e" x="36.72" y="88.957554" transform="rotate(-0 36.72 88.957554)">01</text>
   </g>
   <g id="text_4">
    <text style="font-size: 7.2px; font-family: 'DejaVu Sans', 'Helvetica', 'Arial', sans-serif; text-anchor: middle; fill: #52514e" x="134.625889" y="49.270488" transform="rotate(-0 134.625889 49.270488)">02</text>
   </g>
   <g id="text_5">
    <text style="font-size: 7.2px; font-family: 'DejaVu Sans', 'Helvetica', 'Arial', sans-serif; text-anchor: middle; fill: #52514e" x="184.32" y="87.014823" transform="rotate(-0 184.32 87.014823)">03</text>
   </g>
   <g id="text_6">
    <text style="font-size: 7.2px; font-family: 'DejaVu Sans', 'Helvetica', 'Arial', sans-serif; text-anchor: middle; fill: #52514e" x="106.622269" y="163.687328" transform="rotate(-0 106.622269 163.687328)">04</text>
   </g>
   <g id="text_7">
    <text style="font-size: 7.2px; font-family: 'DejaVu Sans', 'Helvetica', 'Arial', sans-serif; text-anchor: middle; fill: #52514e" x="172.26029" y="136.563141" transform="rotate(-0 172.26029 136.563141)">05</text>
   </g>
   <g id="text_8">
    <text style="font-size: 7.2px; font-family: 'DejaVu Sans', 'Helvetica', 'Arial', sans-serif; text-anchor: middle; fill: #52514e" x="126.283721" y="109.74231" transform="rotate(-0 126.283721 109.74231)">06</text>
   </g>
   <g id="text_9">
    <text style="font-size: 7.2px; font-family: 'DejaVu Sans', 'Helvetica', 'Arial', sans-serif; text-anchor: middle; fill: #52514e" x="77.500764" y="138.809084" transform="rotate(-0 77.500764 138.809084)">07</text>
   </g>
   <g id="text_10">
    <text style="font-size: 7.2px; font-family: 'DejaVu Sans', 'Helvetica', 'Arial', sans-serif; text-anchor: middle; fill: #52514e" x="98.550859" y="49.677787" transform="rotate(-0 98.550859 49.677787)">08</text>
   </g>
   <g id="text_11">
    <text style="font-size: 7.2px; font-family: 'DejaVu Sans', 'Helvetica', 'Arial', sans-serif; text-anchor: middle; fill: #52514e" x="89.083303" y="97.791032" transform="rotate(-0 89.083303 97.791032)">09</text>
   </g>
   <g id="text_12">
    <text style="font-size: 7.2px; font-family: 'DejaVu Sans', 'Helvetica', 'Arial', sans-serif; text-anchor: middle; fill: #52514e" x="148.89948" y="183.596603" transform="rotate(-0 148.89948 183.596603)">10</text>
   </g>
  </g>
  <g id="axes_2">
   <g id="line2d_30">
    <path d="M 350.985889 47.283738 
L 342.643721 107.75556 
" clip-path="url(#pcdfe7c48e1)" style="fill: none; stroke: #2a78d6; stroke-opacity: 0.28; stroke-linecap: round"/>
   </g>
   <g id="line2d_31">
    <path d="M 350.985889 47.283738 
L 305.443303 95.804282 
" clip-path="url(#pcdfe7c48e1)" style="fill: none; stroke: #2a78d6; stroke-opacity: 0.28; stroke-linecap: round"/>
   </g>
   <g id="line2d_32">
    <path d="M 322.982269 161.700578 
L 388.62029 134.576391 
" clip-path="url(#pcdfe7c48e1)" style="fill: none; stroke: #2a78d6; stroke-opacity: 0.28; stroke-linecap: round"/>
   </g>
   <g id="line2d_33">
    <path d="M 322.982269 161.700578 
L 305.443303 95.804282 
" clip-path="url(#pcdfe7c48e1)" style="fill: none; stroke: #2a78d6; stroke-opacity: 0.28; stroke-linecap: round"/>
   </g>
   <g id="line2d_34">
    <path d="M 253.08 86.970804 
L 305.443303 95.804282 
" clip-path="url(#pcdfe7c48e1)" style="fill: none; stroke: #2a78d6; stroke-opacity: 0.28; stroke-linecap: round"/>
   </g>
   <g id="line2d_35">
    <path d="M 350.985889 47.283738 
L 400.68 85.028073 
" clip-path="url(#pcdfe7c48e1)" style="fill: none; stroke: #2a78d6; stroke-opacity: 0.28; stroke-linecap: round"/>
   </g>
   <g id="line2d_36">
    <path d="M 350.985889 47.283738 
L 388.62029 134.576391 
" clip-path="url(#pcdfe7c48e1)" style="fill: none; stroke: #2a78d6; stroke-opacity: 0.28; stroke-linecap: round"/>
   </g>
   <g id="line2d_37">
    <path d="M 350.985889 47.283738 
L 314.910859 47.691037 
" clip-path="url(#pcdfe7c48e1)" style="fill: none; stroke: #2a78d6; stroke-opacity: 0.28; stroke-linecap: round"/>
   </g>
   <g id="line2d_38">
    <path d="M 400.68 85.028073 
L 388.62029 134.576391 
" clip-path="url(#pcdfe7c48e1)" style="fill: none; stroke: #2a78d6; stroke-opacity: 0.28; stroke-linecap: round"/>
   </g>
   <g id="line2d_39">
    <path d="M 322.982269 161.700578 
L 342.643721 107.75556 
" clip-path="url(#pcdfe7c48e1)" style="fill: none; stroke: #2a78d6; stroke-opacity: 0.28; stroke-linecap: round"/>
   </g>
   <g id="line2d_40">
    <path d="M 322.982269 161.700578 
L 293.860764 136.822334 
" clip-path="url(#pcdfe7c48e1)" style="fill: none; stroke: #2a78d6; stroke-opacity: 0.28; stroke-linecap: round"/>
   </g>
   <g id="line2d_41">
    <path d="M 342.643721 107.75556 
L 314.910859 47.691037 
" clip-path="url(#pcdfe7c48e1)" style="fill: none; stroke: #2a78d6; stroke-opacity: 0.28; stroke-linecap: round"/>
   </g>
   <g id="line2d_42">
    <path d="M 314.910859 47.691037 
L 305.443303 95.804282 
" clip-path="url(#pcdfe7c48e1)" style="fill: none; stroke: #2a78d6; stroke-opacity: 0.28; stroke-linecap: round"/>
   </g>
   <g id="line2d_43">
    <path d="M 350.985889 47.283738 
L 293.860764 136.822334 
" clip-path="url(#pcdfe7c48e1)" style="fill: none; stroke: #2a78d6; stroke-opacity: 0.85; stroke-width: 2.2; stroke-linecap: round"/>
   </g>
   <g id="line2d_44">
    <path d="M 342.643721 107.75556 
L 293.860764 136.822334 
" clip-path="url(#pcdfe7c48e1)" style="fill: none; stroke: #2a78d6; stroke-opacity: 0.85; stroke-width: 2.2; stroke-linecap: round"/>
   </g>
   <g id="line2d_45">
    <path d="M 293.860764 136.822334 
L 305.443303 95.804282 
" clip-path="url(#pcdfe7c48e1)" style="fill: none; stroke: #2a78d6; stroke-opacity: 0.85; stroke-width: 2.2; stroke-linecap: round"/>
   </g>
   <g id="line2d_46">
    <path d="M 342.643721 107.75556 
L 305.443303 95.804282 
" clip-path="url(#pcdfe7c48e1)" style="fill: none; stroke: #2a78d6; stroke-opacity: 0.85; stroke-width: 2.2; stroke-linecap: round"/>
   </g>
   <g id="line2d_47">
    <path d="M 293.860764 136.822334 
L 314.910859 47.691037 
" clip-path="url(#pcdfe7c48e1)" style="fill: none; stroke: #2a78d6; stroke-opacity: 0.85; stroke-width: 2.2; stroke-linecap: round"/>
   </g>
   <g id="PathCollection_11">
    <g clip-path="url(#pcdfe7c48e1)">
     <use xlink:href="#m0022daaf7b" x="253.08" y="86.970804" style="fill: #ffffff; stroke: #8a8880; stroke-width: 1.1"/>
    </g>
   </g>
   <g id="PathCollection_12">
    <g clip-path="url(#pcdfe7c48e1)">
     <use xlink:href="#m049918de39" x="350.985889" y="47.283738" style="fill: #ffffff; stroke: #8a8880; stroke-width: 1.1"/>
    </g>
   </g>
   <g id="PathCollection_13">
    <g clip-path="url(#pcdfe7c48e1)">
     <use xlink:href="#m0022daaf7b" x="400.68" y="85.028073" style="fill: #ffffff; stroke: #8a8880; stroke-width: 1.1"/>
    </g>
   </g>
   <g id="PathCollection_14">
    <g clip-path="url(#pcdfe7c48e1)">
     <use xlink:href="#m0022daaf7b" x="322.982269" y="161.700578" style="fill: #ffffff; stroke: #8a8880; stroke-width: 1.1"/>
    </g>
   </g>
   <g id="PathCollection_15">
    <g clip-path="url(#pcdfe7c48e1)">
     <use xlink:href="#m0022daaf7b" x="388.62029" y="134.576391" style="fill: #ffffff; stroke: #8a8880; stroke-width: 1.1"/>
    </g>
   </g>
   <g id="PathCollection_16">
    <g clip-path="url(#pcdfe7c48e1)">
     <use xlink:href="#mff0e82865e" x="342.643721" y="107.75556" style="fill: #ffffff; stroke: #8a8880; stroke-width: 1.1"/>
    </g>
   </g>
   <g id="PathCollection_17">
    <defs>
     <path id="m71c9e7f185" d="M 0 8.717798 
C 2.311987 8.717798 4.529592 7.799236 6.164414 6.164414 
C 7.799236 4.529592 8.717798 2.311987 8.717798 0 
C 8.717798 -2.311987 7.799236 -4.529592 6.164414 -6.164414 
C 4.529592 -7.799236 2.311987 -8.717798 0 -8.717798 
C -2.311987 -8.717798 -4.529592 -7.799236 -6.164414 -6.164414 
C -7.799236 -4.529592 -8.717798 -2.311987 -8.717798 0 
C -8.717798 2.311987 -7.799236 4.529592 -6.164414 6.164414 
C -4.529592 7.799236 -2.311987 8.717798 0 8.717798 
z
" style="stroke: #8a8880; stroke-width: 1.1"/>
    </defs>
    <g clip-path="url(#pcdfe7c48e1)">
     <use xlink:href="#m71c9e7f185" x="293.860764" y="136.822334" style="fill: #ffffff; stroke: #8a8880; stroke-width: 1.1"/>
    </g>
   </g>
   <g id="PathCollection_18">
    <g clip-path="url(#pcdfe7c48e1)">
     <use xlink:href="#m049918de39" x="314.910859" y="47.691037" style="fill: #ffffff; stroke: #8a8880; stroke-width: 1.1"/>
    </g>
   </g>
   <g id="PathCollection_19">
    <g clip-path="url(#pcdfe7c48e1)">
     <use xlink:href="#mff0e82865e" x="305.443303" y="95.804282" style="fill: #ffffff; stroke: #8a8880; stroke-width: 1.1"/>
    </g>
   </g>
   <g id="PathCollection_20">
    <g clip-path="url(#pcdfe7c48e1)">
     <use xlink:href="#m0022daaf7b" x="365.25948" y="181.609853" style="fill: #ffffff; stroke: #8a8880; stroke-width: 1.1"/>
    </g>
   </g>
   <g id="text_13">
    <text style="font-size: 8.5px; font-family: 'DejaVu Sans', 'Helvetica', 'Arial', sans-serif; text-anchor: middle; fill: #84827c" x="326.88" y="226.217141" transform="rotate(-0 326.88 226.217141)">acuerdo medio 0,48</text>
   </g>
   <g id="text_14">
    <text style="font-size: 9.5px; font-family: 'DejaVu Sans', 'Helvetica', 'Arial', sans-serif; text-anchor: middle; fill: #0b0b0b" x="326.88" y="14.418516" transform="rotate(-0 326.88 14.418516)">Ronda 2</text>
   </g>
   <g id="text_15">
    <text style="font-size: 7.2px; font-family: 'DejaVu Sans', 'Helvetica', 'Arial', sans-serif; text-anchor: middle; fill: #52514e" x="253.08" y="88.957554" transform="rotate(-0 253.08 88.957554)">01</text>
   </g>
   <g id="text_16">
    <text style="font-size: 7.2px; font-family: 'DejaVu Sans', 'Helvetica', 'Arial', sans-serif; text-anchor: middle; fill: #52514e" x="350.985889" y="49.270488" transform="rotate(-0 350.985889 49.270488)">02</text>
   </g>
   <g id="text_17">
    <text style="font-size: 7.2px; font-family: 'DejaVu Sans', 'Helvetica', 'Arial', sans-serif; text-anchor: middle; fill: #52514e" x="400.68" y="87.014823" transform="rotate(-0 400.68 87.014823)">03</text>
   </g>
   <g id="text_18">
    <text style="font-size: 7.2px; font-family: 'DejaVu Sans', 'Helvetica', 'Arial', sans-serif; text-anchor: middle; fill: #52514e" x="322.982269" y="163.687328" transform="rotate(-0 322.982269 163.687328)">04</text>
   </g>
   <g id="text_19">
    <text style="font-size: 7.2px; font-family: 'DejaVu Sans', 'Helvetica', 'Arial', sans-serif; text-anchor: middle; fill: #52514e" x="388.62029" y="136.563141" transform="rotate(-0 388.62029 136.563141)">05</text>
   </g>
   <g id="text_20">
    <text style="font-size: 7.2px; font-family: 'DejaVu Sans', 'Helvetica', 'Arial', sans-serif; text-anchor: middle; fill: #52514e" x="342.643721" y="109.74231" transform="rotate(-0 342.643721 109.74231)">06</text>
   </g>
   <g id="text_21">
    <text style="font-size: 7.2px; font-family: 'DejaVu Sans', 'Helvetica', 'Arial', sans-serif; text-anchor: middle; fill: #52514e" x="293.860764" y="138.809084" transform="rotate(-0 293.860764 138.809084)">07</text>
   </g>
   <g id="text_22">
    <text style="font-size: 7.2px; font-family: 'DejaVu Sans', 'Helvetica', 'Arial', sans-serif; text-anchor: middle; fill: #52514e" x="314.910859" y="49.677787" transform="rotate(-0 314.910859 49.677787)">08</text>
   </g>
   <g id="text_23">
    <text style="font-size: 7.2px; font-family: 'DejaVu Sans', 'Helvetica', 'Arial', sans-serif; text-anchor: middle; fill: #52514e" x="305.443303" y="97.791032" transform="rotate(-0 305.443303 97.791032)">09</text>
   </g>
   <g id="text_24">
    <text style="font-size: 7.2px; font-family: 'DejaVu Sans', 'Helvetica', 'Arial', sans-serif; text-anchor: middle; fill: #52514e" x="365.25948" y="183.596603" transform="rotate(-0 365.25948 183.596603)">10</text>
   </g>
  </g>
  <g id="axes_3">
   <g id="line2d_48">
    <path d="M 617.04 85.028073 
L 559.003721 107.75556 
" clip-path="url(#pd59496aa23)" style="fill: none; stroke: #2a78d6; stroke-opacity: 0.28; stroke-linecap: round"/>
   </g>
   <g id="line2d_49">
    <path d="M 604.98029 134.576391 
L 510.220764 136.822334 
" clip-path="url(#pd59496aa23)" style="fill: none; stroke: #2a78d6; stroke-opacity: 0.28; stroke-linecap: round"/>
   </g>
   <g id="line2d_50">
    <path d="M 567.345889 47.283738 
L 617.04 85.028073 
" clip-path="url(#pd59496aa23)" style="fill: none; stroke: #2a78d6; stroke-opacity: 0.28; stroke-linecap: round"/>
   </g>
   <g id="line2d_51">
    <path d="M 604.98029 134.576391 
L 531.270859 47.691037 
" clip-path="url(#pd59496aa23)" style="fill: none; stroke: #2a78d6; stroke-opacity: 0.28; stroke-linecap: round"/>
   </g>
   <g id="line2d_52">
    <path d="M 510.220764 136.822334 
L 531.270859 47.691037 
" clip-path="url(#pd59496aa23)" style="fill: none; stroke: #2a78d6; stroke-opacity: 0.28; stroke-linecap: round"/>
   </g>
   <g id="line2d_53">
    <path d="M 617.04 85.028073 
L 539.342269 161.700578 
" clip-path="url(#pd59496aa23)" style="fill: none; stroke: #2a78d6; stroke-opacity: 0.85; stroke-width: 2.2; stroke-linecap: round"/>
   </g>
   <g id="line2d_54">
    <path d="M 617.04 85.028073 
L 521.803303 95.804282 
" clip-path="url(#pd59496aa23)" style="fill: none; stroke: #2a78d6; stroke-opacity: 0.85; stroke-width: 2.2; stroke-linecap: round"/>
   </g>
   <g id="line2d_55">
    <path d="M 617.04 85.028073 
L 581.61948 181.609853 
" clip-path="url(#pd59496aa23)" style="fill: none; stroke: #2a78d6; stroke-opacity: 0.85; stroke-width: 2.2; stroke-linecap: round"/>
   </g>
   <g id="line2d_56">
    <path d="M 539.342269 161.700578 
L 604.98029 134.576391 
" clip-path="url(#pd59496aa23)" style="fill: none; stroke: #2a78d6; stroke-opacity: 0.85; stroke-width: 2.2; stroke-linecap: round"/>
   </g>
   <g id="line2d_57">
    <path d="M 604.98029 134.576391 
L 559.003721 107.75556 
" clip-path="url(#pd59496aa23)" style="fill: none; stroke: #2a78d6; stroke-opacity: 0.85; stroke-width: 2.2; stroke-linecap: round"/>
   </g>
   <g id="line2d_58">
    <path d="M 604.98029 134.576391 
L 521.803303 95.804282 
" clip-path="url(#pd59496aa23)" style="fill: none; stroke: #2a78d6; stroke-opacity: 0.85; stroke-width: 2.2; stroke-linecap: round"/>
   </g>
   <g id="line2d_59">
    <path d="M 604.98029 134.576391 
L 581.61948 181.609853 
" clip-path="url(#pd59496aa23)" style="fill: none; stroke: #2a78d6; stroke-opacity: 0.85; stroke-width: 2.2; stroke-linecap: round"/>
   </g>
   <g id="line2d_60">
    <path d="M 559.003721 107.75556 
L 510.220764 136.822334 
" clip-path="url(#pd59496aa23)" style="fill: none; stroke: #2a78d6; stroke-opacity: 0.85; stroke-width: 2.2; stroke-linecap: round"/>
   </g>
   <g id="line2d_61">
    <path d="M 617.04 85.028073 
L 510.220764 136.822334 
" clip-path="url(#pd59496aa23)" style="fill: none; stroke: #2a78d6; stroke-opacity: 0.85; stroke-width: 2.2; stroke-linecap: round"/>
   </g>
   <g id="line2d_62">
    <path d="M 539.342269 161.700578 
L 559.003721 107.75556 
" clip-path="url(#pd59496aa23)" style="fill: none; stroke: #2a78d6; stroke-opacity: 0.85; stroke-width: 2.2; stroke-linecap: round"/>
   </g>
   <g id="line2d_63">
    <path d="M 539.342269 161.700578 
L 510.220764 136.822334 
" clip-path="url(#pd59496aa23)" style="fill: none; stroke: #2a78d6; stroke-opacity: 0.85; stroke-width: 2.2; stroke-linecap: round"/>
   </g>
   <g id="line2d_64">
    <path d="M 539.342269 161.700578 
L 521.803303 95.804282 
" clip-path="url(#pd59496aa23)" style="fill: none; stroke: #2a78d6; stroke-opacity: 0.85; stroke-width: 2.2; stroke-linecap: round"/>
   </g>
   <g id="line2d_65">
    <path d="M 539.342269 161.700578 
L 581.61948 181.609853 
" clip-path="url(#pd59496aa23)" style="fill: none; stroke: #2a78d6; stroke-opacity: 0.85; stroke-width: 2.2; stroke-linecap: round"/>
   </g>
   <g id="line2d_66">
    <path d="M 559.003721 107.75556 
L 531.270859 47.691037 
" clip-path="url(#pd59496aa23)" style="fill: none; stroke: #2a78d6; stroke-opacity: 0.85; stroke-width: 2.2; stroke-linecap: round"/>
   </g>
   <g id="line2d_67">
    <path d="M 559.003721 107.75556 
L 521.803303 95.804282 
" clip-path="url(#pd59496aa23)" style="fill: none; stroke: #2a78d6; stroke-opacity: 0.85; stroke-width: 2.2; stroke-linecap: round"/>
   </g>
   <g id="line2d_68">
    <path d="M 559.003721 107.75556 
L 581.61948 181.609853 
" clip-path="url(#pd59496aa23)" style="fill: none; stroke: #2a78d6; stroke-opacity: 0.85; stroke-width: 2.2; stroke-linecap: round"/>
   </g>
   <g id="line2d_69">
    <path d="M 510.220764 136.822334 
L 521.803303 95.804282 
" clip-path="url(#pd59496aa23)" style="fill: none; stroke: #2a78d6; stroke-opacity: 0.85; stroke-width: 2.2; stroke-linecap: round"/>
   </g>
   <g id="line2d_70">
    <path d="M 510.220764 136.822334 
L 581.61948 181.609853 
" clip-path="url(#pd59496aa23)" style="fill: none; stroke: #2a78d6; stroke-opacity: 0.85; stroke-width: 2.2; stroke-linecap: round"/>
   </g>
   <g id="line2d_71">
    <path d="M 521.803303 95.804282 
L 581.61948 181.609853 
" clip-path="url(#pd59496aa23)" style="fill: none; stroke: #2a78d6; stroke-opacity: 0.85; stroke-width: 2.2; stroke-linecap: round"/>
   </g>
   <g id="PathCollection_21">
    <g clip-path="url(#pd59496aa23)">
     <use xlink:href="#m0022daaf7b" x="469.44" y="86.970804" style="fill: #ffffff; stroke: #8a8880; stroke-width: 1.1"/>
    </g>
   </g>
   <g id="PathCollection_22">
    <g clip-path="url(#pd59496aa23)">
     <use xlink:href="#m0022daaf7b" x="567.345889" y="47.283738" style="fill: #ffffff; stroke: #8a8880; stroke-width: 1.1"/>
    </g>
   </g>
   <g id="PathCollection_23">
    <g clip-path="url(#pd59496aa23)">
     <use xlink:href="#m71c9e7f185" x="617.04" y="85.028073" style="fill: #ffffff; stroke: #8a8880; stroke-width: 1.1"/>
    </g>
   </g>
   <g id="PathCollection_24">
    <defs>
     <path id="mf8045eb918" d="M 0 9.949874 
C 2.638738 9.949874 5.169754 8.901493 7.035624 7.035624 
C 8.901493 5.169754 9.949874 2.638738 9.949874 0 
C 9.949874 -2.638738 8.901493 -5.169754 7.035624 -7.035624 
C 5.169754 -8.901493 2.638738 -9.949874 0 -9.949874 
C -2.638738 -9.949874 -5.169754 -8.901493 -7.035624 -7.035624 
C -8.901493 -5.169754 -9.949874 -2.638738 -9.949874 0 
C -9.949874 2.638738 -8.901493 5.169754 -7.035624 7.035624 
C -5.169754 8.901493 -2.638738 9.949874 0 9.949874 
z
" style="stroke: #8a8880; stroke-width: 1.1"/>
    </defs>
    <g clip-path="url(#pd59496aa23)">
     <use xlink:href="#mf8045eb918" x="539.342269" y="161.700578" style="fill: #ffffff; stroke: #8a8880; stroke-width: 1.1"/>
    </g>
   </g>
   <g id="PathCollection_25">
    <g clip-path="url(#pd59496aa23)">
     <use xlink:href="#m71c9e7f185" x="604.98029" y="134.576391" style="fill: #ffffff; stroke: #8a8880; stroke-width: 1.1"/>
    </g>
   </g>
   <g id="PathCollection_26">
    <g clip-path="url(#pd59496aa23)">
     <use xlink:href="#mf8045eb918" x="559.003721" y="107.75556" style="fill: #ffffff; stroke: #8a8880; stroke-width: 1.1"/>
    </g>
   </g>
   <g id="PathCollection_27">
    <g clip-path="url(#pd59496aa23)">
     <use xlink:href="#mfca62e30c8" x="510.220764" y="136.822334" style="fill: #ffffff; stroke: #8a8880; stroke-width: 1.1"/>
    </g>
   </g>
   <g id="PathCollection_28">
    <g clip-path="url(#pd59496aa23)">
     <use xlink:href="#m049918de39" x="531.270859" y="47.691037" style="fill: #ffffff; stroke: #8a8880; stroke-width: 1.1"/>
    </g>
   </g>
   <g id="PathCollection_29">
    <g clip-path="url(#pd59496aa23)">
     <use xlink:href="#mf8045eb918" x="521.803303" y="95.804282" style="fill: #ffffff; stroke: #8a8880; stroke-width: 1.1"/>
    </g>
   </g>
   <g id="PathCollection_30">
    <g clip-path="url(#pd59496aa23)">
     <use xlink:href="#mf8045eb918" x="581.61948" y="181.609853" style="fill: #ffffff; stroke: #8a8880; stroke-width: 1.1"/>
    </g>
   </g>
   <g id="text_25">
    <text style="font-size: 8.5px; font-family: 'DejaVu Sans', 'Helvetica', 'Arial', sans-serif; text-anchor: middle; fill: #84827c" x="543.24" y="226.217141" transform="rotate(-0 543.24 226.217141)">acuerdo medio 0,72</text>
   </g>
   <g id="text_26">
    <text style="font-size: 9.5px; font-family: 'DejaVu Sans', 'Helvetica', 'Arial', sans-serif; text-anchor: middle; fill: #0b0b0b" x="543.24" y="14.418516" transform="rotate(-0 543.24 14.418516)">Ronda 3</text>
   </g>
   <g id="text_27">
    <text style="font-size: 7.2px; font-family: 'DejaVu Sans', 'Helvetica', 'Arial', sans-serif; text-anchor: middle; fill: #52514e" x="469.44" y="88.957554" transform="rotate(-0 469.44 88.957554)">01</text>
   </g>
   <g id="text_28">
    <text style="font-size: 7.2px; font-family: 'DejaVu Sans', 'Helvetica', 'Arial', sans-serif; text-anchor: middle; fill: #52514e" x="567.345889" y="49.270488" transform="rotate(-0 567.345889 49.270488)">02</text>
   </g>
   <g id="text_29">
    <text style="font-size: 7.2px; font-family: 'DejaVu Sans', 'Helvetica', 'Arial', sans-serif; text-anchor: middle; fill: #52514e" x="617.04" y="87.014823" transform="rotate(-0 617.04 87.014823)">03</text>
   </g>
   <g id="text_30">
    <text style="font-size: 7.2px; font-family: 'DejaVu Sans', 'Helvetica', 'Arial', sans-serif; text-anchor: middle; fill: #52514e" x="539.342269" y="163.687328" transform="rotate(-0 539.342269 163.687328)">04</text>
   </g>
   <g id="text_31">
    <text style="font-size: 7.2px; font-family: 'DejaVu Sans', 'Helvetica', 'Arial', sans-serif; text-anchor: middle; fill: #52514e" x="604.98029" y="136.563141" transform="rotate(-0 604.98029 136.563141)">05</text>
   </g>
   <g id="text_32">
    <text style="font-size: 7.2px; font-family: 'DejaVu Sans', 'Helvetica', 'Arial', sans-serif; text-anchor: middle; fill: #52514e" x="559.003721" y="109.74231" transform="rotate(-0 559.003721 109.74231)">06</text>
   </g>
   <g id="text_33">
    <text style="font-size: 7.2px; font-family: 'DejaVu Sans', 'Helvetica', 'Arial', sans-serif; text-anchor: middle; fill: #52514e" x="510.220764" y="138.809084" transform="rotate(-0 510.220764 138.809084)">07</text>
   </g>
   <g id="text_34">
    <text style="font-size: 7.2px; font-family: 'DejaVu Sans', 'Helvetica', 'Arial', sans-serif; text-anchor: middle; fill: #52514e" x="531.270859" y="49.677787" transform="rotate(-0 531.270859 49.677787)">08</text>
   </g>
   <g id="text_35">
    <text style="font-size: 7.2px; font-family: 'DejaVu Sans', 'Helvetica', 'Arial', sans-serif; text-anchor: middle; fill: #52514e" x="521.803303" y="97.791032" transform="rotate(-0 521.803303 97.791032)">09</text>
   </g>
   <g id="text_36">
    <text style="font-size: 7.2px; font-family: 'DejaVu Sans', 'Helvetica', 'Arial', sans-serif; text-anchor: middle; fill: #52514e" x="581.61948" y="183.596603" transform="rotate(-0 581.61948 183.596603)">10</text>
   </g>
  </g>
 </g>
 <defs>
  <clipPath id="pf49cc30583">
   <rect x="7.2" y="20.418516" width="206.64" height="188.05656"/>
  </clipPath>
  <clipPath id="pcdfe7c48e1">
   <rect x="223.56" y="20.418516" width="206.64" height="188.05656"/>
  </clipPath>
  <clipPath id="pd59496aa23">
   <rect x="439.92" y="20.418516" width="206.64" height="188.05656"/>
  </clipPath>
 </defs>
</svg>
